<?xml version="1.0" encoding="UTF-8" standalone="no"?>
<svg
   width="175.16708"
   height="27.908037"
   viewBox="0 0 175.16708 27.908037"
   fill="none"
   version="1.1"
   id="svg82"
   xmlns="http://www.w3.org/2000/svg"
   xmlns:svg="http://www.w3.org/2000/svg">
  <g
     filter="url(#filter0_ii_18_18800)"
     id="g1"
     transform="translate(-2.1886497,-1.8520539)">
    <path
       d="M 14.4378,9.88059 C 15.6953,8.59984 17.753,8.58104 19.0338,9.8386 l 3.1207,3.0642 c 1.2807,1.2576 1.2995,3.3153 0.042,4.596 l -2.7738,2.8249 c -0.1548,0.1576 -0.408,0.16 -0.5657,0.0052 l -0.2854,-0.2803 c -0.7636,-0.5304 -1.8206,-0.4496 -2.4939,0.2362 -0.7513,0.7651 -0.7409,1.9939 0.0226,2.7462 l -0.0063,2e-4 0.6972,0.6846 c 0.2956,0.2902 0.2999,0.765 0.0097,1.0606 l -3.3498,3.4116 c -1.838,1.8718 -4.84541,1.8993 -6.71727,0.0614 L 3.91071,25.4774 C 2.03885,23.6394 2.01138,20.632 3.84935,18.7601 L 7.1992,15.3485 c 0.29021,-0.2956 0.76506,-0.2999 1.06062,-0.0097 l 0.7372,0.7239 0.00167,-0.0048 c 0.76671,0.7528 1.99851,0.7416 2.75131,-0.0251 0.6687,-0.681 0.7346,-1.7289 0.2038,-2.4822 l -0.2846,-0.2794 c -0.1577,-0.1548 -0.16,-0.4081 -0.0052,-0.5657 z"
       fill="url(#paint0_linear_18_18800)"
       id="path1"
       style="fill:url(#paint0_linear_18_18800)" />
  </g>
  <g
     filter="url(#filter1_f_18_18800)"
     id="g2"
     transform="translate(-2.1886497,-1.8520539)">
    <path
       d="m 21.5383,12.6016 -2.949,3.3071 c -0.2843,0.315 -0.773,0.3316 -1.0781,0.0367 l -1.4551,-1.4068 c -0.3106,-0.3003 -0.3039,-0.8002 0.0145,-1.0921 l 3.304,-2.9694 z"
       fill="#6c4043"
       id="path2" />
  </g>
  <g
     filter="url(#filter2_ii_18_18800)"
     id="g4"
     transform="translate(-2.1886497,-1.8520539)">
    <path
       d="m 24.9293,5.32861 1.711,1.69532 -7.8784,8.72857 c -0.2843,0.3149 -0.773,0.3316 -1.0781,0.0367 l -1.4551,-1.4068 c -0.3106,-0.3003 -0.3039,-0.8002 0.0145,-1.0921 z"
       fill="url(#paint1_linear_18_18800)"
       id="path3"
       style="fill:url(#paint1_linear_18_18800)" />
    <path
       d="m 24.9293,5.32861 1.711,1.69532 -7.8784,8.72857 c -0.2843,0.3149 -0.773,0.3316 -1.0781,0.0367 l -1.4551,-1.4068 c -0.3106,-0.3003 -0.3039,-0.8002 0.0145,-1.0921 z"
       fill="url(#paint2_linear_18_18800)"
       id="path4"
       style="fill:url(#paint2_linear_18_18800)" />
  </g>
  <g
     filter="url(#filter3_i_18_18800)"
     id="g7"
     transform="translate(-2.1886497,-1.8520539)">
    <path
       d="m 25.7743,2.99656 c 0.445,-0.64621 1.3683,-0.72749 1.9194,-0.16895 l 1.381,1.39982 c 0.5441,0.55154 0.4606,1.46017 -0.175,1.90327 L 27.2838,7.25732 C 26.9827,7.46722 26.574,7.42841 26.3178,7.16559 L 24.7471,5.55423 C 24.4971,5.29777 24.4634,4.90034 24.6665,4.60537 Z"
       fill="#825250"
       id="path5" />
    <path
       d="m 25.7743,2.99656 c 0.445,-0.64621 1.3683,-0.72749 1.9194,-0.16895 l 1.381,1.39982 c 0.5441,0.55154 0.4606,1.46017 -0.175,1.90327 L 27.2838,7.25732 C 26.9827,7.46722 26.574,7.42841 26.3178,7.16559 L 24.7471,5.55423 C 24.4971,5.29777 24.4634,4.90034 24.6665,4.60537 Z"
       fill="url(#paint3_radial_18_18800)"
       id="path6"
       style="fill:url(#paint3_radial_18_18800)" />
    <path
       d="m 25.7743,2.99656 c 0.445,-0.64621 1.3683,-0.72749 1.9194,-0.16895 l 1.381,1.39982 c 0.5441,0.55154 0.4606,1.46017 -0.175,1.90327 L 27.2838,7.25732 C 26.9827,7.46722 26.574,7.42841 26.3178,7.16559 L 24.7471,5.55423 C 24.4971,5.29777 24.4634,4.90034 24.6665,4.60537 Z"
       fill="url(#paint4_linear_18_18800)"
       id="path7"
       style="fill:url(#paint4_linear_18_18800)" />
  </g>
  <circle
     cx="25.69375"
     cy="5.7304649"
     r="0.66015601"
     fill="url(#paint5_radial_18_18800)"
     id="circle7"
     style="fill:url(#paint5_radial_18_18800)" />
  <circle
     cx="25.69375"
     cy="5.7304649"
     r="0.66015601"
     fill="url(#paint6_radial_18_18800)"
     id="circle8"
     style="fill:url(#paint6_radial_18_18800)" />
  <circle
     cx="22.150249"
     cy="2.1249962"
     r="0.66015601"
     fill="url(#paint7_radial_18_18800)"
     id="circle9"
     style="fill:url(#paint7_radial_18_18800)" />
  <circle
     cx="22.150249"
     cy="2.1249962"
     r="0.66015601"
     fill="url(#paint8_radial_18_18800)"
     id="circle10"
     style="fill:url(#paint8_radial_18_18800)" />
  <circle
     cx="27.185949"
     cy="4.5898361"
     r="0.66015601"
     fill="url(#paint9_radial_18_18800)"
     id="circle11"
     style="fill:url(#paint9_radial_18_18800)" />
  <circle
     cx="27.185949"
     cy="4.5898361"
     r="0.66015601"
     fill="url(#paint10_radial_18_18800)"
     id="circle12"
     style="fill:url(#paint10_radial_18_18800)" />
  <circle
     cx="23.26745"
     cy="0.66015625"
     r="0.66015601"
     fill="url(#paint11_radial_18_18800)"
     id="circle13"
     style="fill:url(#paint11_radial_18_18800)" />
  <circle
     cx="23.26745"
     cy="0.66015625"
     r="0.66015601"
     fill="url(#paint12_radial_18_18800)"
     id="circle14"
     style="fill:url(#paint12_radial_18_18800)" />
  <path
     d="m 6.0004607,18.935646 c 0.3096,-0.3096 0.81157,-0.3096 1.12117,0 l 1.94522,1.9453 c 0.3096,0.3096 0.3096,0.8115 0,1.1211 -0.3096,0.3097 -0.8115,0.3097 -1.1212,0 l -1.94519,-1.9452 c -0.3096,-0.3096 -0.3096,-0.8116 0,-1.1212 z"
     fill="url(#paint13_linear_18_18800)"
     id="path14"
     style="fill:url(#paint13_linear_18_18800)" />
  <g
     filter="url(#filter4_ii_18_18800)"
     id="g16"
     transform="translate(-2.1886497,-1.8520539)">
    <path
       d="m 6.61219,23.0708 c 0.18376,-0.2431 0.54037,-0.2667 0.75454,-0.0499 l 1.7641,1.7855 c 0.2148,0.2174 0.18603,0.5749 -0.06077,0.7552 L 5.93252,27.8532 C 5.77333,27.9695 5.55315,27.9524 5.41375,27.813 L 4.301,26.7002 C 4.15984,26.5591 4.14437,26.3355 4.26475,26.1762 Z"
       fill="url(#paint14_linear_18_18800)"
       id="path15"
       style="fill:url(#paint14_linear_18_18800)" />
    <path
       d="m 6.61219,23.0708 c 0.18376,-0.2431 0.54037,-0.2667 0.75454,-0.0499 l 1.7641,1.7855 c 0.2148,0.2174 0.18603,0.5749 -0.06077,0.7552 L 5.93252,27.8532 C 5.77333,27.9695 5.55315,27.9524 5.41375,27.813 L 4.301,26.7002 C 4.15984,26.5591 4.14437,26.3355 4.26475,26.1762 Z"
       fill="url(#paint15_linear_18_18800)"
       id="path16"
       style="fill:url(#paint15_linear_18_18800)" />
  </g>
  <g
     filter="url(#filter5_f_18_18800)"
     id="g18"
     transform="translate(-2.1886497,-1.8520539)">
    <path
       d="m 6.40115,22.9004 c 0.18376,-0.2431 0.54037,-0.2667 0.75454,-0.0499 l 1.93599,1.9261 c 0.2148,0.2174 0.18603,0.5749 -0.06077,0.7552 L 6.60122,27.3443 C 6.44203,27.4606 6.22185,27.4435 6.08246,27.3041 L 4.68064,25.9152 C 4.53947,25.7741 4.52401,25.5504 4.64439,25.3912 Z"
       fill="#4d2e34"
       id="path17" />
    <path
       d="m 6.40115,22.9004 c 0.18376,-0.2431 0.54037,-0.2667 0.75454,-0.0499 l 1.93599,1.9261 c 0.2148,0.2174 0.18603,0.5749 -0.06077,0.7552 L 6.60122,27.3443 C 6.44203,27.4606 6.22185,27.4435 6.08246,27.3041 L 4.68064,25.9152 C 4.53947,25.7741 4.52401,25.5504 4.64439,25.3912 Z"
       fill="url(#paint16_radial_18_18800)"
       id="path18"
       style="fill:url(#paint16_radial_18_18800)" />
  </g>
  <g
     filter="url(#filter6_ii_18_18800)"
     id="g20"
     transform="translate(-2.1886497,-1.8520539)">
    <path
       d="m 6.61219,23.0708 c 0.18376,-0.2431 0.54037,-0.2667 0.75454,-0.0499 l 1.7641,1.7855 c 0.2148,0.2174 0.18603,0.5749 -0.06077,0.7552 L 5.93252,27.8532 C 5.77333,27.9695 5.55315,27.9524 5.41375,27.813 L 4.301,26.7002 C 4.15984,26.5591 4.14437,26.3355 4.26475,26.1762 Z"
       fill="url(#paint17_linear_18_18800)"
       id="path19"
       style="fill:url(#paint17_linear_18_18800)" />
    <path
       d="m 6.61219,23.0708 c 0.18376,-0.2431 0.54037,-0.2667 0.75454,-0.0499 l 1.7641,1.7855 c 0.2148,0.2174 0.18603,0.5749 -0.06077,0.7552 L 5.93252,27.8532 C 5.77333,27.9695 5.55315,27.9524 5.41375,27.813 L 4.301,26.7002 C 4.15984,26.5591 4.14437,26.3355 4.26475,26.1762 Z"
       fill="url(#paint18_linear_18_18800)"
       id="path20"
       style="fill:url(#paint18_linear_18_18800)" />
  </g>
  <g
     filter="url(#filter7_i_18_18800)"
     id="g21"
     transform="translate(-2.1886497,-1.8520539)">
    <path
       d="m 14.4264,20.4048 c -0.0083,-0.0354 -0.0518,-0.046 -0.0811,-0.0244 -0.0956,0.0706 -0.2138,0.1123 -0.3418,0.1123 -0.3182,0 -0.5761,-0.258 -0.5761,-0.5762 0,-0.3182 0.2579,-0.5762 0.5761,-0.5762 0.101,0 0.2298,0.0409 0.319,0.0916 0.0992,0.0564 0.2866,0.163 0.43,0.3257 0.194,0.2199 0.3167,0.5316 0.2968,0.9827 -0.0083,0.1881 -0.0709,0.3706 -0.146,0.5339 -0.0757,0.1648 -0.1738,0.3305 -0.2691,0.4858 -0.0251,0.0409 -0.0499,0.081 -0.0742,0.1203 -0.171,0.2763 -0.3168,0.512 -0.3829,0.7277 -0.0802,0.2613 -0.0964,0.5174 -0.0294,0.7092 0.0065,0.0188 0.031,0.0224 0.0446,0.0079 0.1051,-0.111 0.2538,-0.1803 0.4187,-0.1803 0.3182,0 0.5761,0.258 0.5761,0.5762 0,0.3182 -0.2579,0.5762 -0.5761,0.5762 -0.5583,0 -0.9054,-0.4255 -1.0299,-0.7824 -0.1255,-0.3599 -0.0772,-0.7582 0.0223,-1.0827 0.0909,-0.2964 0.2841,-0.6071 0.4493,-0.8727 0.0241,-0.0388 0.0477,-0.0767 0.0702,-0.1133 0.0941,-0.1533 0.1757,-0.2928 0.2352,-0.4224 0.0603,-0.1311 0.0884,-0.2324 0.0918,-0.3099 0.0056,-0.1273 -0.0044,-0.2282 -0.0235,-0.309 z"
       fill="#332c3a"
       id="path21" />
  </g>
  <g
     filter="url(#filter8_i_18_18800)"
     id="g22"
     transform="translate(-2.1886497,-1.8520539)">
    <path
       d="m 11.7048,17.663 c 0.0355,0.008 0.0464,0.0514 0.0251,0.0809 -0.0697,0.0962 -0.1103,0.2148 -0.1091,0.3428 0.003,0.3181 0.2634,0.5737 0.5816,0.5707 0.3182,-0.003 0.5737,-0.2633 0.5707,-0.5815 -9e-4,-0.1009 -0.043,-0.2293 -0.0946,-0.3181 -0.0573,-0.0987 -0.1656,-0.285 -0.3296,-0.427 -0.2218,-0.1919 -0.5345,-0.3117 -0.9854,-0.2876 -0.1881,0.0101 -0.3699,0.0744 -0.5325,0.151 -0.1641,0.0772 -0.3289,0.1769 -0.4833,0.2736 -0.0407,0.0256 -0.0806,0.0507 -0.1196,0.0754 C 9.95334,17.7167 9.71901,17.8647 9.504,17.9329 9.2434,18.0155 8.98754,18.034 8.79503,17.9689 8.77617,17.9625 8.77241,17.9381 8.78675,17.9243 8.89678,17.8183 8.96465,17.6689 8.96311,17.504 8.96014,17.1858 8.69978,16.9303 8.38158,16.9333 c -0.31819,0.0029 -0.57373,0.2633 -0.57076,0.5815 0.00521,0.5582 0.4339,0.9014 0.79197,1.0225 0.36103,0.1221 0.75884,0.0701 1.08247,-0.0325 0.29553,-0.0936 0.60434,-0.2897 0.86844,-0.4574 0.0386,-0.0244 0.0762,-0.0483 0.1127,-0.0712 0.1524,-0.0955 0.2911,-0.1784 0.4201,-0.2392 0.1306,-0.0614 0.2316,-0.0905 0.309,-0.0946 0.1273,-0.0069 0.2282,0.0023 0.3093,0.0206 z"
       fill="#332c3a"
       id="path22" />
  </g>
  <defs
     id="defs82">
    <filter
       id="filter0_ii_18_18800"
       x="2.1886499"
       y="8.7575903"
       width="21.2388"
       height="21.002501"
       filterUnits="userSpaceOnUse"
       color-interpolation-filters="sRGB">
      <feFlood
         flood-opacity="0"
         result="BackgroundImageFix"
         id="feFlood22" />
      <feBlend
         mode="normal"
         in="SourceGraphic"
         in2="BackgroundImageFix"
         result="shape"
         id="feBlend22" />
      <feColorMatrix
         in="SourceAlpha"
         type="matrix"
         values="0 0 0 0 0 0 0 0 0 0 0 0 0 0 0 0 0 0 127 0"
         result="hardAlpha"
         id="feColorMatrix22" />
      <feOffset
         dx="0.3"
         dy="-0.15"
         id="feOffset22" />
      <feGaussianBlur
         stdDeviation="0.25"
         id="feGaussianBlur22" />
      <feComposite
         in2="hardAlpha"
         operator="arithmetic"
         k2="-1"
         k3="1"
         id="feComposite22"
         k1="0"
         k4="0" />
      <feColorMatrix
         type="matrix"
         values="0 0 0 0 0.388235 0 0 0 0 0.254902 0 0 0 0 0.298039 0 0 0 1 0"
         id="feColorMatrix23" />
      <feBlend
         mode="normal"
         in2="shape"
         result="effect1_innerShadow_18_18800"
         id="feBlend23" />
      <feColorMatrix
         in="SourceAlpha"
         type="matrix"
         values="0 0 0 0 0 0 0 0 0 0 0 0 0 0 0 0 0 0 127 0"
         result="hardAlpha"
         id="feColorMatrix24" />
      <feOffset
         dx="-0.3"
         dy="0.15"
         id="feOffset24" />
      <feGaussianBlur
         stdDeviation="0.25"
         id="feGaussianBlur24" />
      <feComposite
         in2="hardAlpha"
         operator="arithmetic"
         k2="-1"
         k3="1"
         id="feComposite24"
         k1="0"
         k4="0" />
      <feColorMatrix
         type="matrix"
         values="0 0 0 0 0.678431 0 0 0 0 0.505882 0 0 0 0 0.462745 0 0 0 1 0"
         id="feColorMatrix25" />
      <feBlend
         mode="normal"
         in2="effect1_innerShadow_18_18800"
         result="effect2_innerShadow_18_18800"
         id="feBlend25" />
    </filter>
    <filter
       id="filter1_f_18_18800"
       x="15.3274"
       y="9.9770498"
       width="6.7109399"
       height="6.6792002"
       filterUnits="userSpaceOnUse"
       color-interpolation-filters="sRGB">
      <feFlood
         flood-opacity="0"
         result="BackgroundImageFix"
         id="feFlood25" />
      <feBlend
         mode="normal"
         in="SourceGraphic"
         in2="BackgroundImageFix"
         result="shape"
         id="feBlend26" />
      <feGaussianBlur
         stdDeviation="0.25"
         result="effect1_foregroundBlur_18_18800"
         id="feGaussianBlur26" />
    </filter>
    <filter
       id="filter2_ii_18_18800"
       x="16"
       y="5.0286102"
       width="10.6403"
       height="11.2714"
       filterUnits="userSpaceOnUse"
       color-interpolation-filters="sRGB">
      <feFlood
         flood-opacity="0"
         result="BackgroundImageFix"
         id="feFlood26" />
      <feBlend
         mode="normal"
         in="SourceGraphic"
         in2="BackgroundImageFix"
         result="shape"
         id="feBlend27" />
      <feColorMatrix
         in="SourceAlpha"
         type="matrix"
         values="0 0 0 0 0 0 0 0 0 0 0 0 0 0 0 0 0 0 127 0"
         result="hardAlpha"
         id="feColorMatrix27" />
      <feOffset
         dy="-0.3"
         id="feOffset27" />
      <feGaussianBlur
         stdDeviation="0.15"
         id="feGaussianBlur27" />
      <feComposite
         in2="hardAlpha"
         operator="arithmetic"
         k2="-1"
         k3="1"
         id="feComposite27"
         k1="0"
         k4="0" />
      <feColorMatrix
         type="matrix"
         values="0 0 0 0 0.223529 0 0 0 0 0.141176 0 0 0 0 0.266667 0 0 0 1 0"
         id="feColorMatrix28" />
      <feBlend
         mode="normal"
         in2="shape"
         result="effect1_innerShadow_18_18800"
         id="feBlend28" />
      <feColorMatrix
         in="SourceAlpha"
         type="matrix"
         values="0 0 0 0 0 0 0 0 0 0 0 0 0 0 0 0 0 0 127 0"
         result="hardAlpha"
         id="feColorMatrix29" />
      <feOffset
         dy="0.3"
         id="feOffset29" />
      <feGaussianBlur
         stdDeviation="0.15"
         id="feGaussianBlur29" />
      <feComposite
         in2="hardAlpha"
         operator="arithmetic"
         k2="-1"
         k3="1"
         id="feComposite29"
         k1="0"
         k4="0" />
      <feColorMatrix
         type="matrix"
         values="0 0 0 0 0.207843 0 0 0 0 0.156863 0 0 0 0 0.168627 0 0 0 1 0"
         id="feColorMatrix30" />
      <feBlend
         mode="normal"
         in2="effect1_innerShadow_18_18800"
         result="effect2_innerShadow_18_18800"
         id="feBlend30" />
    </filter>
    <filter
       id="filter3_i_18_18800"
       x="24.534201"
       y="2.1554401"
       width="4.9007602"
       height="5.23665"
       filterUnits="userSpaceOnUse"
       color-interpolation-filters="sRGB">
      <feFlood
         flood-opacity="0"
         result="BackgroundImageFix"
         id="feFlood30" />
      <feBlend
         mode="normal"
         in="SourceGraphic"
         in2="BackgroundImageFix"
         result="shape"
         id="feBlend31" />
      <feColorMatrix
         in="SourceAlpha"
         type="matrix"
         values="0 0 0 0 0 0 0 0 0 0 0 0 0 0 0 0 0 0 127 0"
         result="hardAlpha"
         id="feColorMatrix31" />
      <feOffset
         dy="-0.3"
         id="feOffset31" />
      <feGaussianBlur
         stdDeviation="0.375"
         id="feGaussianBlur31" />
      <feComposite
         in2="hardAlpha"
         operator="arithmetic"
         k2="-1"
         k3="1"
         id="feComposite31"
         k1="0"
         k4="0" />
      <feColorMatrix
         type="matrix"
         values="0 0 0 0 0.372549 0 0 0 0 0.2 0 0 0 0 0.298039 0 0 0 1 0"
         id="feColorMatrix32" />
      <feBlend
         mode="normal"
         in2="shape"
         result="effect1_innerShadow_18_18800"
         id="feBlend32" />
    </filter>
    <filter
       id="filter4_ii_18_18800"
       x="4.1838398"
       y="22.7223"
       width="5.1713099"
       height="5.2878599"
       filterUnits="userSpaceOnUse"
       color-interpolation-filters="sRGB">
      <feFlood
         flood-opacity="0"
         result="BackgroundImageFix"
         id="feFlood32" />
      <feBlend
         mode="normal"
         in="SourceGraphic"
         in2="BackgroundImageFix"
         result="shape"
         id="feBlend33" />
      <feColorMatrix
         in="SourceAlpha"
         type="matrix"
         values="0 0 0 0 0 0 0 0 0 0 0 0 0 0 0 0 0 0 127 0"
         result="hardAlpha"
         id="feColorMatrix33" />
      <feOffset
         dy="-0.15"
         id="feOffset33" />
      <feGaussianBlur
         stdDeviation="0.075"
         id="feGaussianBlur33" />
      <feComposite
         in2="hardAlpha"
         operator="arithmetic"
         k2="-1"
         k3="1"
         id="feComposite33"
         k1="0"
         k4="0" />
      <feColorMatrix
         type="matrix"
         values="0 0 0 0 0.298039 0 0 0 0 0.184314 0 0 0 0 0.376471 0 0 0 1 0"
         id="feColorMatrix34" />
      <feBlend
         mode="normal"
         in2="shape"
         result="effect1_innerShadow_18_18800"
         id="feBlend34" />
      <feColorMatrix
         in="SourceAlpha"
         type="matrix"
         values="0 0 0 0 0 0 0 0 0 0 0 0 0 0 0 0 0 0 127 0"
         result="hardAlpha"
         id="feColorMatrix35" />
      <feOffset
         dx="0.08"
         dy="0.08"
         id="feOffset35" />
      <feGaussianBlur
         stdDeviation="0.075"
         id="feGaussianBlur35" />
      <feComposite
         in2="hardAlpha"
         operator="arithmetic"
         k2="-1"
         k3="1"
         id="feComposite35"
         k1="0"
         k4="0" />
      <feColorMatrix
         type="matrix"
         values="0 0 0 0 0.266667 0 0 0 0 0.207843 0 0 0 0 0.309804 0 0 0 1 0"
         id="feColorMatrix36" />
      <feBlend
         mode="normal"
         in2="effect1_innerShadow_18_18800"
         result="effect2_innerShadow_18_18800"
         id="feBlend36" />
    </filter>
    <filter
       id="filter5_f_18_18800"
       x="3.8134799"
       y="21.9519"
       width="6.1724901"
       height="6.2193599"
       filterUnits="userSpaceOnUse"
       color-interpolation-filters="sRGB">
      <feFlood
         flood-opacity="0"
         result="BackgroundImageFix"
         id="feFlood36" />
      <feBlend
         mode="normal"
         in="SourceGraphic"
         in2="BackgroundImageFix"
         result="shape"
         id="feBlend37" />
      <feGaussianBlur
         stdDeviation="0.375"
         result="effect1_foregroundBlur_18_18800"
         id="feGaussianBlur37" />
    </filter>
    <filter
       id="filter6_ii_18_18800"
       x="4.1838398"
       y="22.7223"
       width="5.1713099"
       height="5.2878599"
       filterUnits="userSpaceOnUse"
       color-interpolation-filters="sRGB">
      <feFlood
         flood-opacity="0"
         result="BackgroundImageFix"
         id="feFlood37" />
      <feBlend
         mode="normal"
         in="SourceGraphic"
         in2="BackgroundImageFix"
         result="shape"
         id="feBlend38" />
      <feColorMatrix
         in="SourceAlpha"
         type="matrix"
         values="0 0 0 0 0 0 0 0 0 0 0 0 0 0 0 0 0 0 127 0"
         result="hardAlpha"
         id="feColorMatrix38" />
      <feOffset
         dy="-0.15"
         id="feOffset38" />
      <feGaussianBlur
         stdDeviation="0.075"
         id="feGaussianBlur38" />
      <feComposite
         in2="hardAlpha"
         operator="arithmetic"
         k2="-1"
         k3="1"
         id="feComposite38"
         k1="0"
         k4="0" />
      <feColorMatrix
         type="matrix"
         values="0 0 0 0 0.298039 0 0 0 0 0.184314 0 0 0 0 0.376471 0 0 0 1 0"
         id="feColorMatrix39" />
      <feBlend
         mode="normal"
         in2="shape"
         result="effect1_innerShadow_18_18800"
         id="feBlend39" />
      <feColorMatrix
         in="SourceAlpha"
         type="matrix"
         values="0 0 0 0 0 0 0 0 0 0 0 0 0 0 0 0 0 0 127 0"
         result="hardAlpha"
         id="feColorMatrix40" />
      <feOffset
         dx="0.08"
         dy="0.08"
         id="feOffset40" />
      <feGaussianBlur
         stdDeviation="0.075"
         id="feGaussianBlur40" />
      <feComposite
         in2="hardAlpha"
         operator="arithmetic"
         k2="-1"
         k3="1"
         id="feComposite40"
         k1="0"
         k4="0" />
      <feColorMatrix
         type="matrix"
         values="0 0 0 0 0.266667 0 0 0 0 0.207843 0 0 0 0 0.309804 0 0 0 1 0"
         id="feColorMatrix41" />
      <feBlend
         mode="normal"
         in2="effect1_innerShadow_18_18800"
         result="effect2_innerShadow_18_18800"
         id="feBlend41" />
    </filter>
    <filter
       id="filter7_i_18_18800"
       x="13.4274"
       y="19.3403"
       width="1.75977"
       height="4.95679"
       filterUnits="userSpaceOnUse"
       color-interpolation-filters="sRGB">
      <feFlood
         flood-opacity="0"
         result="BackgroundImageFix"
         id="feFlood41" />
      <feBlend
         mode="normal"
         in="SourceGraphic"
         in2="BackgroundImageFix"
         result="shape"
         id="feBlend42" />
      <feColorMatrix
         in="SourceAlpha"
         type="matrix"
         values="0 0 0 0 0 0 0 0 0 0 0 0 0 0 0 0 0 0 127 0"
         result="hardAlpha"
         id="feColorMatrix42" />
      <feOffset
         id="feOffset42" />
      <feGaussianBlur
         stdDeviation="0.125"
         id="feGaussianBlur42" />
      <feComposite
         in2="hardAlpha"
         operator="arithmetic"
         k2="-1"
         k3="1"
         id="feComposite42"
         k1="0"
         k4="0" />
      <feColorMatrix
         type="matrix"
         values="0 0 0 0 0.137255 0 0 0 0 0.117647 0 0 0 0 0.145098 0 0 0 1 0"
         id="feColorMatrix43" />
      <feBlend
         mode="normal"
         in2="shape"
         result="effect1_innerShadow_18_18800"
         id="feBlend43" />
    </filter>
    <filter
       id="filter8_i_18_18800"
       x="7.8107901"
       y="16.933201"
       width="4.9624"
       height="1.7242399"
       filterUnits="userSpaceOnUse"
       color-interpolation-filters="sRGB">
      <feFlood
         flood-opacity="0"
         result="BackgroundImageFix"
         id="feFlood43" />
      <feBlend
         mode="normal"
         in="SourceGraphic"
         in2="BackgroundImageFix"
         result="shape"
         id="feBlend44" />
      <feColorMatrix
         in="SourceAlpha"
         type="matrix"
         values="0 0 0 0 0 0 0 0 0 0 0 0 0 0 0 0 0 0 127 0"
         result="hardAlpha"
         id="feColorMatrix44" />
      <feOffset
         id="feOffset44" />
      <feGaussianBlur
         stdDeviation="0.125"
         id="feGaussianBlur44" />
      <feComposite
         in2="hardAlpha"
         operator="arithmetic"
         k2="-1"
         k3="1"
         id="feComposite44"
         k1="0"
         k4="0" />
      <feColorMatrix
         type="matrix"
         values="0 0 0 0 0.137255 0 0 0 0 0.117647 0 0 0 0 0.145098 0 0 0 1 0"
         id="feColorMatrix45" />
      <feBlend
         mode="normal"
         in2="shape"
         result="effect1_innerShadow_18_18800"
         id="feBlend45" />
    </filter>
    <linearGradient
       id="paint0_linear_18_18800"
       x1="21.718399"
       y1="12.4224"
       x2="7.0934"
       y2="28.4224"
       gradientUnits="userSpaceOnUse">
      <stop
         stop-color="#9A6460"
         id="stop45" />
      <stop
         offset="1"
         stop-color="#7B4E49"
         id="stop46" />
    </linearGradient>
    <linearGradient
       id="paint1_linear_18_18800"
       x1="18.343399"
       y1="14.2974"
       x2="23.687201"
       y2="8.6723604"
       gradientUnits="userSpaceOnUse">
      <stop
         stop-color="#433E4A"
         id="stop47" />
      <stop
         offset="1"
         stop-color="#503F60"
         id="stop48" />
    </linearGradient>
    <linearGradient
       id="paint2_linear_18_18800"
       x1="25.7106"
       y1="6.4536099"
       x2="25.015301"
       y2="7.1411099"
       gradientUnits="userSpaceOnUse">
      <stop
         offset="0.179159"
         stop-color="#37234A"
         id="stop49" />
      <stop
         offset="1"
         stop-color="#504060"
         stop-opacity="0"
         id="stop50" />
    </linearGradient>
    <radialGradient
       id="paint3_radial_18_18800"
       cx="0"
       cy="0"
       r="1"
       gradientUnits="userSpaceOnUse"
       gradientTransform="matrix(-0.9374903,0.92188045,-1.9736972,-2.0071171,28.4841,4.35992)">
      <stop
         stop-color="#B08378"
         id="stop51" />
      <stop
         offset="1"
         stop-color="#A37062"
         stop-opacity="0"
         id="stop52" />
    </radialGradient>
    <linearGradient
       id="paint4_linear_18_18800"
       x1="24.534201"
       y1="3.51617"
       x2="27.0935"
       y2="4.92377"
       gradientUnits="userSpaceOnUse">
      <stop
         offset="0.132615"
         stop-color="#562C26"
         id="stop53" />
      <stop
         offset="1"
         stop-color="#7D4E49"
         stop-opacity="0"
         id="stop54" />
    </linearGradient>
    <radialGradient
       id="paint5_radial_18_18800"
       cx="0"
       cy="0"
       r="1"
       gradientUnits="userSpaceOnUse"
       gradientTransform="matrix(0,-0.921875,0.851563,0,25.628051,6.3007761)">
      <stop
         stop-color="#3E2455"
         id="stop55" />
      <stop
         offset="1"
         stop-color="#3C2943"
         id="stop56" />
    </radialGradient>
    <radialGradient
       id="paint6_radial_18_18800"
       cx="0"
       cy="0"
       r="1"
       gradientUnits="userSpaceOnUse"
       gradientTransform="matrix(-0.39843644,0.44140727,-0.44140727,-0.39843644,25.967951,5.6679661)">
      <stop
         stop-color="#655D6E"
         id="stop57" />
      <stop
         offset="1"
         stop-color="#655D6E"
         stop-opacity="0"
         id="stop58" />
    </radialGradient>
    <radialGradient
       id="paint7_radial_18_18800"
       cx="0"
       cy="0"
       r="1"
       gradientUnits="userSpaceOnUse"
       gradientTransform="matrix(0,-0.921875,0.851563,0,22.084551,2.6953061)">
      <stop
         stop-color="#3E2455"
         id="stop59" />
      <stop
         offset="1"
         stop-color="#3C2943"
         id="stop60" />
    </radialGradient>
    <radialGradient
       id="paint8_radial_18_18800"
       cx="0"
       cy="0"
       r="1"
       gradientUnits="userSpaceOnUse"
       gradientTransform="matrix(-0.39843644,0.44140727,-0.44140727,-0.39843644,22.424351,2.0624961)">
      <stop
         stop-color="#655D6E"
         id="stop61" />
      <stop
         offset="1"
         stop-color="#655D6E"
         stop-opacity="0"
         id="stop62" />
    </radialGradient>
    <radialGradient
       id="paint9_radial_18_18800"
       cx="0"
       cy="0"
       r="1"
       gradientUnits="userSpaceOnUse"
       gradientTransform="matrix(0,-0.921875,0.851563,0,27.120251,5.1601561)">
      <stop
         stop-color="#3E2455"
         id="stop63" />
      <stop
         offset="1"
         stop-color="#3C2943"
         id="stop64" />
    </radialGradient>
    <radialGradient
       id="paint10_radial_18_18800"
       cx="0"
       cy="0"
       r="1"
       gradientUnits="userSpaceOnUse"
       gradientTransform="matrix(-0.39843644,0.44140727,-0.44140727,-0.39843644,27.460151,4.5273361)">
      <stop
         stop-color="#655D6E"
         id="stop65" />
      <stop
         offset="1"
         stop-color="#655D6E"
         stop-opacity="0"
         id="stop66" />
    </radialGradient>
    <radialGradient
       id="paint11_radial_18_18800"
       cx="0"
       cy="0"
       r="1"
       gradientUnits="userSpaceOnUse"
       gradientTransform="matrix(0,-0.921875,0.851563,0,23.201651,1.2304661)">
      <stop
         stop-color="#3E2455"
         id="stop67" />
      <stop
         offset="1"
         stop-color="#3C2943"
         id="stop68" />
    </radialGradient>
    <radialGradient
       id="paint12_radial_18_18800"
       cx="0"
       cy="0"
       r="1"
       gradientUnits="userSpaceOnUse"
       gradientTransform="matrix(-0.39843644,0.44140727,-0.44140727,-0.39843644,23.541551,0.5976561)">
      <stop
         stop-color="#655D6E"
         id="stop69" />
      <stop
         offset="1"
         stop-color="#655D6E"
         stop-opacity="0"
         id="stop70" />
    </radialGradient>
    <linearGradient
       id="paint13_linear_18_18800"
       x1="9.4684401"
       y1="20.828699"
       x2="10.0934"
       y2="24.0863"
       gradientUnits="userSpaceOnUse"
       gradientTransform="translate(-2.1886497,-1.8520539)">
      <stop
         stop-color="#DF935D"
         id="stop71" />
      <stop
         offset="1"
         stop-color="#F1BE92"
         id="stop72" />
    </linearGradient>
    <linearGradient
       id="paint14_linear_18_18800"
       x1="8.3434401"
       y1="24.2036"
       x2="5.0621901"
       y2="27.4224"
       gradientUnits="userSpaceOnUse">
      <stop
         offset="0.526882"
         stop-color="#685779"
         id="stop73" />
      <stop
         offset="1"
         stop-color="#43384E"
         id="stop74" />
    </linearGradient>
    <linearGradient
       id="paint15_linear_18_18800"
       x1="8.3903103"
       y1="23.9849"
       x2="8.08953"
       y2="24.2778"
       gradientUnits="userSpaceOnUse">
      <stop
         offset="0.451532"
         stop-color="#6F5F7B"
         id="stop75" />
      <stop
         offset="1"
         stop-color="#6F5F7B"
         stop-opacity="0"
         id="stop76" />
    </linearGradient>
    <radialGradient
       id="paint16_radial_18_18800"
       cx="0"
       cy="0"
       r="1"
       gradientUnits="userSpaceOnUse"
       gradientTransform="matrix(-0.60937198,-2.2172984,3.0041152,-0.82560997,5.28091,25.0616)">
      <stop
         offset="0.610981"
         stop-color="#472B32"
         id="stop77" />
      <stop
         offset="1"
         stop-color="#472B32"
         stop-opacity="0"
         id="stop78" />
    </radialGradient>
    <linearGradient
       id="paint17_linear_18_18800"
       x1="8.3434401"
       y1="24.2036"
       x2="5.0621901"
       y2="27.4224"
       gradientUnits="userSpaceOnUse">
      <stop
         offset="0.526882"
         stop-color="#685779"
         id="stop79" />
      <stop
         offset="1"
         stop-color="#43384E"
         id="stop80" />
    </linearGradient>
    <linearGradient
       id="paint18_linear_18_18800"
       x1="8.3903103"
       y1="23.9849"
       x2="8.08953"
       y2="24.2778"
       gradientUnits="userSpaceOnUse">
      <stop
         offset="0.451532"
         stop-color="#6F5F7B"
         id="stop81" />
      <stop
         offset="1"
         stop-color="#6F5F7B"
         stop-opacity="0"
         id="stop82" />
    </linearGradient>
  </defs>
  <text
     xml:space="preserve"
     style="font-size:24px;line-height:1.55;fill:#2d3138;fill-opacity:1;stroke-width:1.00157;stroke-dasharray:none"
     x="28.553806"
     y="24.636402"
     id="text84"><tspan
       id="tspan84"
       x="28.553806"
       y="24.636402"
       style="font-size:24px">Admin Panel</tspan></text>
</svg>
